<svg width="20" height="20" viewBox="0 0 20 20" fill="none" xmlns="http://www.w3.org/2000/svg">
<path d="M0.0052433 9.98047C0.0052433 10.6836 0.526121 11.2344 1.11645 11.2344H2.22765L2.20335 17.4922C2.20335 17.5977 2.21029 17.7031 2.22071 17.8086V18.4375C2.22071 19.3008 2.84229 20 3.60972 20H4.16532C4.20352 20 4.24171 20 4.27991 19.9961C4.32853 20 4.37714 20 4.42576 20H5.55433H6.38773C7.15516 20 7.77674 19.3008 7.77674 18.4375V17.5V15C7.77674 14.3086 8.27331 13.75 8.88794 13.75H11.1104C11.725 13.75 12.2216 14.3086 12.2216 15V17.5V18.4375C12.2216 19.3008 12.8431 20 13.6106 20H14.444H15.5517C15.6038 20 15.6559 19.9961 15.708 19.9922C15.7496 19.9961 15.7913 20 15.833 20H16.3886C17.156 20 17.7776 19.3008 17.7776 18.4375V14.0625C17.7776 14.0273 17.7776 13.9883 17.7741 13.9531V11.2344H18.8888C19.5138 11.2344 20 10.6875 20 9.98047C20 9.62891 19.8958 9.31641 19.6527 9.04297L10.7492 0.3125C10.5061 0.0390625 10.2283 0 9.98526 0C9.74218 0 9.46438 0.078125 9.25603 0.273438L0.38722 9.04297C0.109419 9.31641 -0.0294819 9.62891 0.0052433 9.98047Z" fill="black"/>
</svg>
