<svg width="20" height="20" viewBox="0 0 20 20" fill="none" xmlns="http://www.w3.org/2000/svg">
<path d="M9.18403 0.203125C9.70139 -0.0664062 10.2986 -0.0664062 10.816 0.203125L18.4063 4.14844C18.7014 4.30078 18.8889 4.63281 18.8889 5C18.8889 5.36719 18.7014 5.69922 18.4063 5.85156L10.816 9.79688C10.2986 10.0664 9.70139 10.0664 9.18403 9.79688L1.59375 5.85156C1.29861 5.69531 1.11111 5.36328 1.11111 5C1.11111 4.63672 1.29861 4.30078 1.59375 4.14844L9.18403 0.203125ZM16.559 8.1875L18.4063 9.14844C18.7014 9.30078 18.8889 9.63281 18.8889 10C18.8889 10.3672 18.7014 10.6992 18.4063 10.8516L10.816 14.7969C10.2986 15.0664 9.70139 15.0664 9.18403 14.7969L1.59375 10.8516C1.29861 10.6953 1.11111 10.3633 1.11111 10C1.11111 9.63672 1.29861 9.30078 1.59375 9.14844L3.44098 8.1875L8.71875 10.9297C9.53125 11.3516 10.4688 11.3516 11.2813 10.9297L16.559 8.1875ZM11.2813 15.9297L16.559 13.1875L18.4063 14.1484C18.7014 14.3008 18.8889 14.6328 18.8889 15C18.8889 15.3672 18.7014 15.6992 18.4063 15.8516L10.816 19.7969C10.2986 20.0664 9.70139 20.0664 9.18403 19.7969L1.59375 15.8516C1.29861 15.6953 1.11111 15.3633 1.11111 15C1.11111 14.6367 1.29861 14.3008 1.59375 14.1484L3.44098 13.1875L8.71875 15.9297C9.53125 16.3516 10.4688 16.3516 11.2813 15.9297Z" fill="black"/>
</svg>
