<svg width="20" height="20" viewBox="0 0 20 20" fill="none" xmlns="http://www.w3.org/2000/svg">
<g clip-path="url(#clip0_4_58)">
<path d="M5.94141 1.49219C6.32812 1.83984 6.35937 2.42969 6.01172 2.81641L3.19922 5.94141C3.02734 6.13281 2.78516 6.24609 2.52734 6.25C2.26953 6.25391 2.02344 6.15625 1.83984 5.97656L0.273437 4.41406C-0.0898438 4.04687 -0.0898438 3.45312 0.273437 3.08594C0.636719 2.71875 1.23437 2.71875 1.59766 3.08594L2.46094 3.94922L4.61328 1.55859C4.96094 1.17187 5.55078 1.14062 5.9375 1.48828L5.94141 1.49219ZM5.94141 7.74219C6.32812 8.08984 6.35937 8.67969 6.01172 9.06641L3.19922 12.1914C3.02734 12.3828 2.78516 12.4961 2.52734 12.5C2.26953 12.5039 2.02344 12.4062 1.83984 12.2266L0.273437 10.6641C-0.09375 10.2969 -0.09375 9.70312 0.273437 9.33984C0.640625 8.97656 1.23437 8.97266 1.59766 9.33984L2.46094 10.2031L4.61328 7.8125C4.96094 7.42578 5.55078 7.39453 5.9375 7.74219H5.94141ZM8.75 3.75C8.75 3.05859 9.30859 2.5 10 2.5H18.75C19.4414 2.5 20 3.05859 20 3.75C20 4.44141 19.4414 5 18.75 5H10C9.30859 5 8.75 4.44141 8.75 3.75ZM8.75 10C8.75 9.30859 9.30859 8.75 10 8.75H18.75C19.4414 8.75 20 9.30859 20 10C20 10.6914 19.4414 11.25 18.75 11.25H10C9.30859 11.25 8.75 10.6914 8.75 10ZM6.25 16.25C6.25 15.5586 6.80859 15 7.5 15H18.75C19.4414 15 20 15.5586 20 16.25C20 16.9414 19.4414 17.5 18.75 17.5H7.5C6.80859 17.5 6.25 16.9414 6.25 16.25ZM1.875 14.375C2.37228 14.375 2.84919 14.5725 3.20082 14.9242C3.55246 15.2758 3.75 15.7527 3.75 16.25C3.75 16.7473 3.55246 17.2242 3.20082 17.5758C2.84919 17.9275 2.37228 18.125 1.875 18.125C1.37772 18.125 0.900805 17.9275 0.549175 17.5758C0.197544 17.2242 -1.14087e-08 16.7473 -1.14087e-08 16.25C-1.14087e-08 15.7527 0.197544 15.2758 0.549175 14.9242C0.900805 14.5725 1.37772 14.375 1.875 14.375Z" fill="black"/>
</g>
<defs>
<clipPath id="clip0_4_58">
<rect width="20" height="20" fill="white"/>
</clipPath>
</defs>
</svg>
