<svg width="29" height="32" viewBox="0 0 29 32" fill="none" xmlns="http://www.w3.org/2000/svg">
<g opacity="0.9" clip-path="url(#clip0_1_37)">
<path d="M3.01896 24.7248C3.71515 24.7273 4.38169 25.036 4.87196 25.5828C5.36223 26.1297 5.63606 26.8699 5.63321 27.6407C5.63036 28.4115 5.35107 29.1497 4.85678 29.6929C4.36249 30.2361 3.69368 30.5398 2.99749 30.5372C2.30131 30.5346 1.63476 30.226 1.1445 29.6792C0.654229 29.1323 0.380399 28.3921 0.383245 27.6213C0.386092 26.8505 0.665381 26.1123 1.15967 25.5691C1.65397 25.0259 2.32277 24.7222 3.01896 24.7248ZM10.001 29.5943C9.03306 29.5908 8.25423 28.7221 8.25819 27.6504C8.26215 26.5787 9.04737 25.7158 10.0153 25.7194L25.7652 25.7775C26.7332 25.7811 27.512 26.6498 27.5081 27.7215C27.5041 28.7931 26.7189 29.6561 25.7509 29.6525L10.001 29.5943ZM10.0368 19.9069C9.06884 19.9033 8.29001 19.0346 8.29397 17.9629C8.29792 16.8913 9.08315 16.0283 10.0511 16.0319L25.801 16.0901C26.769 16.0937 27.5478 16.9624 27.5438 18.034C27.5399 19.1057 26.7547 19.9686 25.7867 19.9651L10.0368 19.9069ZM10.0726 10.2195C9.10461 10.2159 8.32578 9.34718 8.32974 8.27551C8.3337 7.20384 9.11892 6.34091 10.0869 6.34449L25.8368 6.40265C26.8047 6.40622 27.5836 7.27493 27.5796 8.3466C27.5757 9.41827 26.7904 10.2812 25.8225 10.2776L10.0726 10.2195ZM3.09051 5.34989C3.7867 5.35246 4.45324 5.66112 4.94351 6.20796C5.43378 6.7548 5.70761 7.49503 5.70476 8.26582C5.70191 9.0366 5.42262 9.77479 4.92833 10.318C4.43404 10.8612 3.76523 11.1649 3.06904 11.1624C2.37286 11.1598 1.70631 10.8511 1.21605 10.3043C0.725779 9.75744 0.451949 9.01721 0.454795 8.24643C0.457642 7.47565 0.736931 6.73746 1.23122 6.19425C1.72552 5.65105 2.39432 5.34732 3.09051 5.34989ZM5.66898 17.9533C5.66758 18.3349 5.59828 18.7126 5.46506 19.0647C5.33184 19.4168 5.1373 19.7365 4.89256 20.0054C4.64781 20.2744 4.35764 20.4874 4.03862 20.6323C3.71961 20.7771 3.37799 20.8511 3.03327 20.8498C2.68855 20.8485 2.34749 20.7721 2.02955 20.6249C1.71161 20.4776 1.42303 20.2625 1.18027 19.9917C0.937515 19.7209 0.745343 19.3999 0.614728 19.0468C0.484112 18.6937 0.417611 18.3155 0.41902 17.9339C0.42043 17.5522 0.489722 17.1745 0.622942 16.8224C0.756162 16.4703 0.9507 16.1507 1.19545 15.8817C1.4402 15.6127 1.73036 15.3997 2.04938 15.2548C2.3684 15.11 2.71002 15.0361 3.05473 15.0373C3.39945 15.0386 3.74052 15.115 4.05846 15.2623C4.37639 15.4095 4.66498 15.6246 4.90773 15.8954C5.15049 16.1662 5.34266 16.4873 5.47328 16.8403C5.60389 17.1934 5.67039 17.5716 5.66898 17.9533Z" fill="black"/>
</g>
<defs>
<clipPath id="clip0_1_37">
<rect width="28" height="31" fill="white" transform="matrix(0.999993 0.0036929 0.0036929 -0.999993 0.123764 31.1114)"/>
</clipPath>
</defs>
</svg>
