<svg width="21" height="20" viewBox="0 0 21 20" fill="none" xmlns="http://www.w3.org/2000/svg">
<path d="M2.33333 2.5C1.04635 2.5 0 3.62109 0 5V15C0 16.3789 1.04635 17.5 2.33333 17.5H18.6667C19.9536 17.5 21 16.3789 21 15V5C21 3.62109 19.9536 2.5 18.6667 2.5H2.33333ZM4.66667 15H2.33333V12.5C3.62031 12.5 4.66667 13.6211 4.66667 15ZM2.33333 7.5V5H4.66667C4.66667 6.37891 3.62031 7.5 2.33333 7.5ZM16.3333 15C16.3333 13.6211 17.3797 12.5 18.6667 12.5V15H16.3333ZM18.6667 7.5C17.3797 7.5 16.3333 6.37891 16.3333 5H18.6667V7.5ZM10.5 6.25C11.4283 6.25 12.3185 6.64509 12.9749 7.34835C13.6313 8.05161 14 9.00544 14 10C14 10.9946 13.6313 11.9484 12.9749 12.6517C12.3185 13.3549 11.4283 13.75 10.5 13.75C9.57174 13.75 8.6815 13.3549 8.02513 12.6517C7.36875 11.9484 7 10.9946 7 10C7 9.00544 7.36875 8.05161 8.02513 7.34835C8.6815 6.64509 9.57174 6.25 10.5 6.25Z" fill="black"/>
</svg>
