<svg width="20" height="20" viewBox="0 0 20 20" fill="none" xmlns="http://www.w3.org/2000/svg">
<g clip-path="url(#clip0_4_60)">
<path d="M10 10C8.48448 10 7.03103 9.47322 5.95939 8.53553C4.88775 7.59785 4.28571 6.32608 4.28571 5C4.28571 3.67392 4.88775 2.40215 5.95939 1.46447C7.03103 0.526784 8.48448 0 10 0C11.5155 0 12.969 0.526784 14.0406 1.46447C15.1122 2.40215 15.7143 3.67392 15.7143 5C15.7143 6.32608 15.1122 7.59785 14.0406 8.53553C12.969 9.47322 11.5155 10 10 10ZM12.0402 11.875C16.4375 11.875 20 14.9922 20 18.8398C20 19.4805 19.4062 20 18.6741 20H1.32589C0.59375 20 0 19.4805 0 18.8398C0 14.9922 3.5625 11.875 7.95982 11.875H12.0402Z" fill="black"/>
</g>
<defs>
<clipPath id="clip0_4_60">
<rect width="20" height="20" fill="white" transform="matrix(-1 0 0 1 20 0)"/>
</clipPath>
</defs>
</svg>
