<svg width="20" height="20" viewBox="0 0 20 20" fill="none" xmlns="http://www.w3.org/2000/svg">
<path d="M20 3.75C20 2.37109 18.7188 1.25 17.1429 1.25H2.85714C1.28125 1.25 0 2.37109 0 3.75V16.25C0 17.6289 1.28125 18.75 2.85714 18.75H17.1429C18.7188 18.75 20 17.6289 20 16.25V3.75ZM11.4286 6.25C11.4286 6.94141 10.7902 7.5 10 7.5H5.71429C4.92411 7.5 4.28571 6.94141 4.28571 6.25C4.28571 5.55859 4.92411 5 5.71429 5H10C10.7902 5 11.4286 5.55859 11.4286 6.25ZM14.2857 8.75C15.0759 8.75 15.7143 9.30859 15.7143 10C15.7143 10.6914 15.0759 11.25 14.2857 11.25H5.71429C4.92411 11.25 4.28571 10.6914 4.28571 10C4.28571 9.30859 4.92411 8.75 5.71429 8.75H14.2857ZM8.57143 13.75C8.57143 14.4414 7.93304 15 7.14286 15H5.71429C4.92411 15 4.28571 14.4414 4.28571 13.75C4.28571 13.0586 4.92411 12.5 5.71429 12.5H7.14286C7.93304 12.5 8.57143 13.0586 8.57143 13.75Z" fill="black"/>
</svg>
