<svg width="15" height="15" viewBox="0 0 15 15" fill="none" xmlns="http://www.w3.org/2000/svg">
<g clip-path="url(#clip0_141_12)">
<path d="M2.14286 0.9375C0.960938 0.9375 0 1.77832 0 2.8125V12.1875C0 13.2217 0.960938 14.0625 2.14286 14.0625H12.8571C14.0391 14.0625 15 13.2217 15 12.1875V2.8125C15 1.77832 14.0391 0.9375 12.8571 0.9375H2.14286ZM11.2835 6.12305L6.99777 9.87305C6.68304 10.1484 6.17411 10.1484 5.86272 9.87305L3.71987 7.99805C3.40513 7.72266 3.40513 7.27734 3.71987 7.00488C4.0346 6.73242 4.54353 6.72949 4.85491 7.00488L6.42857 8.38184L10.1451 5.12695C10.4598 4.85156 10.9687 4.85156 11.2801 5.12695C11.5915 5.40234 11.5949 5.84766 11.2801 6.12012L11.2835 6.12305Z" fill="black"/>
</g>
<defs>
<clipPath id="clip0_141_12">
<rect width="15" height="15" fill="white"/>
</clipPath>
</defs>
</svg>
